<svg width="73" height="95" viewBox="0 0 73 95" fill="none" xmlns="http://www.w3.org/2000/svg">
<g clip-path="url(#clip0_309_290)">
<rect width="73" height="95" fill="black"/>
<path d="M7.17134 80.939C9.86069 78.2496 15.196 72.8709 23.1773 64.8029C31.1586 56.648 36.7108 50.879 39.8339 47.4956C44.2584 42.7241 47.2513 38.9938 48.8129 36.3044C50.3745 33.6151 51.1552 30.3618 51.1552 26.5447C51.1552 23.9421 50.4612 21.513 49.0732 19.2574C47.7719 16.9151 45.8199 15.0499 43.2173 13.6618C40.7015 12.187 37.6651 11.4496 34.1082 11.4496C29.4235 11.4496 25.6498 12.8377 22.7869 15.6138C20.0108 18.3031 18.189 21.2527 17.3215 24.4626L7.17134 20.4286C8.03887 17.6525 9.60043 14.7896 11.856 11.84C14.1116 8.80362 17.148 6.2444 20.9651 4.16233C24.7822 1.99349 29.2934 0.909076 34.4986 0.909076C39.9641 0.909076 44.7789 2.08025 48.943 4.42258C53.1939 6.76492 56.4906 9.88804 58.8329 13.7919C61.1752 17.6958 62.3464 21.9034 62.3464 26.4145C62.3464 35.5236 57.575 44.9364 48.0321 54.6527L21.3555 81.4595H63.3874V92H7.17134V80.939Z" fill="#FFDDAA"/>
</g>
<defs>
<clipPath id="clip0_309_290">
<rect width="73" height="95" fill="white"/>
</clipPath>
</defs>
</svg>
