<svg width="73" height="95" viewBox="0 0 73 95" fill="none" xmlns="http://www.w3.org/2000/svg">
<g clip-path="url(#clip0_309_292)">
<rect width="73" height="95" fill="black"/>
<path d="M35.644 94.0821C31.9136 94.0821 28.0965 93.3013 24.1926 91.7397C20.2887 90.1782 16.7318 87.7491 13.5219 84.4525C10.3988 81.0691 8.14321 76.8616 6.75516 71.8299L16.7752 67.6657C18.1632 72.6974 20.5055 76.6013 23.8022 79.3774C27.1855 82.1535 31.1328 83.5416 35.644 83.5416C38.9406 83.5416 42.0204 82.8475 44.8832 81.4595C47.7461 79.9847 50.0017 77.9893 51.65 75.4735C53.385 72.8709 54.2526 70.008 54.2526 66.8849C54.2526 63.8486 53.385 61.0725 51.65 58.5566C50.0017 56.0408 47.7027 54.0888 44.7531 52.7008C41.8902 51.226 38.7237 50.4886 35.2536 50.4886H27.5759V40.2083H34.4728C39.2443 40.2083 43.2349 38.8636 46.4448 36.1743C49.6546 33.3982 51.2596 29.7545 51.2596 25.2434C51.2596 21.0792 49.698 17.7392 46.5749 15.2234C43.4518 12.7075 39.5913 11.4496 34.9933 11.4496C30.4822 11.4496 26.9253 12.6208 24.3227 14.9631C21.8068 17.3054 19.985 20.1683 18.8572 23.5517L8.70711 19.2574C10.2687 14.5727 13.2617 10.3652 17.6861 6.63479C22.1972 2.81765 27.9663 0.909076 34.9933 0.909076C40.1985 0.909076 44.8832 1.95011 49.0474 4.03219C53.2115 6.11427 56.4648 9.02051 58.8071 12.7509C61.2362 16.4813 62.4507 20.6454 62.4507 25.2434C62.4507 29.8413 61.2796 33.7452 58.9372 36.9551C56.5949 40.1649 53.6887 42.6808 50.2185 44.5026V45.0231C54.643 46.8449 58.2866 49.6644 61.1495 53.4816C64.0123 57.2119 65.4437 61.6364 65.4437 66.7548C65.4437 71.96 64.0991 76.6447 61.4097 80.8088C58.8071 84.973 55.2069 88.2262 50.6089 90.5686C46.0978 92.9109 41.1094 94.0821 35.644 94.0821Z" fill="#FFDDAA"/>
</g>
<defs>
<clipPath id="clip0_309_292">
<rect width="73" height="95" fill="white"/>
</clipPath>
</defs>
</svg>
