<svg width="73" height="95" viewBox="0 0 73 95" fill="none" xmlns="http://www.w3.org/2000/svg">
<g clip-path="url(#clip0_309_298)">
<rect width="73" height="95" fill="black"/>
<path d="M36.5885 94.0821C30.6892 94.0821 25.3973 92.6506 20.7126 89.7878C16.1147 86.9249 12.5144 83.2379 9.91182 78.7268C7.39598 74.1288 6.13806 69.314 6.13806 64.2823C6.13806 59.5109 7.09234 54.9564 9.00091 50.6187C10.9962 46.1943 13.8157 41.2927 17.4594 35.914L40.7526 0.909076L49.6014 7.02518L27.2191 38.3865L27.4794 38.6467C30.429 36.5647 34.2461 35.5236 38.9308 35.5236C43.442 35.5236 47.8664 36.7816 52.204 39.2974C56.5417 41.8132 60.0552 45.2834 62.7446 49.7078C65.5207 54.0454 66.9087 58.9036 66.9087 64.2823C66.9087 69.4875 65.5207 74.3891 62.7446 78.987C59.9685 83.4982 56.2381 87.1418 51.5534 89.9179C46.9555 92.694 41.9672 94.0821 36.5885 94.0821ZM36.5885 83.5416C40.0586 83.5416 43.2685 82.7174 46.2181 81.0691C49.1677 79.334 51.51 77.0351 53.2451 74.1722C54.9801 71.2226 55.8477 67.9693 55.8477 64.4125C55.8477 60.9423 54.9801 57.7758 53.2451 54.913C51.51 51.9634 49.1677 49.6644 46.2181 48.0161C43.2685 46.281 40.0586 45.4135 36.5885 45.4135C33.1183 45.4135 29.8651 46.281 26.8287 48.0161C23.8791 49.6644 21.5368 51.9634 19.8017 54.913C18.0666 57.7758 17.1991 60.9423 17.1991 64.4125C17.1991 67.9693 18.0666 71.2226 19.8017 74.1722C21.5368 77.0351 23.8791 79.334 26.8287 81.0691C29.8651 82.7174 33.1183 83.5416 36.5885 83.5416Z" fill="#FFDDAA"/>
</g>
<defs>
<clipPath id="clip0_309_298">
<rect width="73" height="95" fill="white"/>
</clipPath>
</defs>
</svg>
