<svg width="73" height="95" viewBox="0 0 73 95" fill="none" xmlns="http://www.w3.org/2000/svg">
<g clip-path="url(#clip0_309_302)">
<rect width="73" height="95" fill="black"/>
<path d="M36.5793 94.0821C30.9403 94.0821 25.8219 92.9109 21.224 90.5686C16.6261 88.2262 13.0258 85.0597 10.4232 81.0691C7.8206 76.9917 6.5193 72.4805 6.5193 67.5356C6.5193 62.5039 7.86397 58.1229 10.5533 54.3925C13.3294 50.5753 16.9297 47.5823 21.3541 45.4135V44.893C17.884 42.8109 15.0211 40.0782 12.7655 36.6948C10.5967 33.2247 9.51228 29.6244 9.51228 25.894C9.51228 21.2093 10.6401 16.9584 12.8957 13.1413C15.238 9.32414 18.4479 6.33116 22.5253 4.16233C26.6894 1.99349 31.3741 0.909076 36.5793 0.909076C41.6977 0.909076 46.2957 1.99349 50.3731 4.16233C54.5372 6.33116 57.7471 9.32414 60.0027 13.1413C62.345 16.9584 63.5162 21.2093 63.5162 25.894C63.5162 29.6244 62.3884 33.2247 60.1328 36.6948C57.964 40.0782 55.1879 42.8109 51.8045 44.893V45.4135C56.2289 47.5823 59.7858 50.5753 62.4751 54.3925C65.2513 58.1229 66.6393 62.5039 66.6393 67.5356C66.6393 72.4805 65.2946 76.9917 62.6053 81.0691C60.0027 85.0597 56.4024 88.2262 51.8045 90.5686C47.2066 92.9109 42.1315 94.0821 36.5793 94.0821ZM36.5793 40.2083C41.1772 40.2083 44.951 38.8636 47.9006 36.1743C50.8502 33.4849 52.325 29.9714 52.325 25.6338C52.325 21.2961 50.8068 17.8693 47.7705 15.3535C44.8209 12.7509 41.0905 11.4496 36.5793 11.4496C31.9814 11.4496 28.1642 12.7509 25.1279 15.3535C22.1783 17.8693 20.7035 21.2961 20.7035 25.6338C20.7035 29.9714 22.1783 33.4849 25.1279 36.1743C28.1642 38.8636 31.9814 40.2083 36.5793 40.2083ZM36.5793 83.5416C41.8713 83.5416 46.2957 82.0234 49.8526 78.987C53.4962 75.8639 55.318 71.8299 55.318 66.8849C55.318 62.1135 53.4962 58.2096 49.8526 55.1732C46.2957 52.0501 41.8713 50.4886 36.5793 50.4886C31.2874 50.4886 26.8196 52.0501 23.1759 55.1732C19.5323 58.2096 17.7105 62.1135 17.7105 66.8849C17.7105 71.8299 19.5323 75.8639 23.1759 78.987C26.8196 82.0234 31.2874 83.5416 36.5793 83.5416Z" fill="#FFDDAA"/>
</g>
<defs>
<clipPath id="clip0_309_302">
<rect width="73" height="95" fill="white"/>
</clipPath>
</defs>
</svg>
