<svg width="73" height="95" viewBox="0 0 73 95" fill="none" xmlns="http://www.w3.org/2000/svg">
<g clip-path="url(#clip0_309_304)">
<rect width="73" height="95" fill="black"/>
<path d="M23.4453 87.966L45.8277 56.6047L45.5674 56.3444C42.531 58.4265 38.6705 59.4675 33.9859 59.4675C29.4747 59.4675 25.0503 58.2096 20.7126 55.6938C16.3749 53.1779 12.8614 49.7512 10.1721 45.4135C7.48273 40.9891 6.13806 36.0875 6.13806 30.7088C6.13806 25.5036 7.48273 20.6454 10.1721 16.1343C12.9482 11.5364 16.6352 7.84934 21.2331 5.07323C25.9178 2.29713 30.9929 0.909076 36.4583 0.909076C42.3575 0.909076 47.6061 2.3405 52.204 5.20336C56.8887 8.06622 60.489 11.7966 63.0048 16.3945C65.6074 20.9057 66.9087 25.6771 66.9087 30.7088C66.9087 35.4803 65.9111 40.0782 63.9157 44.5026C62.0072 48.8403 59.231 53.6984 55.5874 59.0771L32.2942 94.0821L23.4453 87.966ZM36.4583 49.5777C39.9285 49.5777 43.1383 48.7535 46.0879 47.1052C49.1243 45.3701 51.51 43.0712 53.2451 40.2083C54.9801 37.2587 55.8477 34.0488 55.8477 30.5787C55.8477 27.0218 54.9801 23.8119 53.2451 20.9491C51.51 17.9995 49.1243 15.7005 46.0879 14.0522C43.1383 12.3171 39.9285 11.4496 36.4583 11.4496C32.9882 11.4496 29.7783 12.3171 26.8287 14.0522C23.8791 15.7005 21.5368 17.9995 19.8017 20.9491C18.0666 23.8119 17.1991 27.0218 17.1991 30.5787C17.1991 34.0488 18.0666 37.2587 19.8017 40.2083C21.5368 43.0712 23.8791 45.3701 26.8287 47.1052C29.7783 48.7535 32.9882 49.5777 36.4583 49.5777Z" fill="#FFDDAA"/>
</g>
<defs>
<clipPath id="clip0_309_304">
<rect width="73" height="95" fill="white"/>
</clipPath>
</defs>
</svg>
