<svg width="32" height="32" viewBox="0 0 32 32" fill="none" xmlns="http://www.w3.org/2000/svg">
<rect width="32" height="32" fill="black"/>
<path d="M24 10.6666H22.6666V7.99998C22.6666 4.31998 19.68 1.33331 16 1.33331C12.32 1.33331 9.33331 4.31998 9.33331 7.99998V10.6666H7.99998C6.53331 10.6666 5.33331 11.8666 5.33331 13.3333V26.6666C5.33331 28.1333 6.53331 29.3333 7.99998 29.3333H24C25.4666 29.3333 26.6666 28.1333 26.6666 26.6666V13.3333C26.6666 11.8666 25.4666 10.6666 24 10.6666ZM16 22.6666C14.5333 22.6666 13.3333 21.4666 13.3333 20C13.3333 18.5333 14.5333 17.3333 16 17.3333C17.4666 17.3333 18.6666 18.5333 18.6666 20C18.6666 21.4666 17.4666 22.6666 16 22.6666ZM20.1333 10.6666H11.8666V7.99998C11.8666 5.71998 13.72 3.86665 16 3.86665C18.28 3.86665 20.1333 5.71998 20.1333 7.99998V10.6666Z" fill="#676767"/>
</svg>
