<svg width="83" height="28" viewBox="0 0 83 28" fill="none" xmlns="http://www.w3.org/2000/svg">
<g clip-path="url(#clip0_306_1102)">
<rect width="81.5652" height="28" transform="translate(0.695679)" fill="black"/>
<path d="M24.6114 5.15437H18.1225V1.68282H34.734V5.15437H28.2451V24.913H24.6114V5.15437ZM38.9008 1.68282H42.5346V11.3188H53.3062V1.68282H56.9075V24.913H53.3062V14.7579H42.5346V24.913H38.9008V1.68282ZM71.2398 25.4321C69.5094 25.4321 67.9737 25.0428 66.6327 24.2641C65.3133 23.4855 64.2859 22.3824 63.5505 20.9548C62.8151 19.5273 62.4474 17.8726 62.4474 15.9908V1.68282H66.0487V16.1855C66.0487 17.8942 66.4921 19.2893 67.3789 20.3708C68.2874 21.4307 69.5743 21.9606 71.2398 21.9606C72.9053 21.9606 74.1814 21.4307 75.0683 20.3708C75.9551 19.311 76.3985 17.9158 76.3985 16.1855V1.68282H80.0323V15.9908C80.0323 17.851 79.6754 19.4948 78.9616 20.9224C78.2478 22.3499 77.2312 23.4638 75.9118 24.2641C74.5924 25.0428 73.0351 25.4321 71.2398 25.4321Z" fill="#FFDDAA"/>
</g>
<defs>
<clipPath id="clip0_306_1102">
<rect width="81.5652" height="28" fill="white" transform="translate(0.695679)"/>
</clipPath>
</defs>
</svg>
