<svg width="83" height="28" viewBox="0 0 83 28" fill="none" xmlns="http://www.w3.org/2000/svg">
<g clip-path="url(#clip0_306_1106)">
<rect width="81.5652" height="28" transform="translate(0.82605)" fill="black"/>
<path d="M33.2486 25.4321C31.3236 25.4321 29.5932 24.8698 28.0575 23.745C26.5218 22.6203 25.462 21.0413 24.878 19.0081L28.3171 17.613C28.6632 18.8892 29.2688 19.9382 30.134 20.7601C31.0208 21.5604 32.0807 21.9606 33.3135 21.9606C34.4599 21.9606 35.4332 21.6686 36.2335 21.0846C37.0338 20.479 37.434 19.657 37.434 18.6188C37.434 17.6671 37.0771 16.8884 36.3633 16.2828C35.6712 15.6556 34.4491 15.0283 32.6971 14.401L31.2371 13.8819C29.6798 13.3412 28.3712 12.5625 27.3113 11.5459C26.2515 10.5293 25.7215 9.1883 25.7215 7.52282C25.7215 6.37645 26.0352 5.31659 26.6624 4.34326C27.2897 3.36993 28.1549 2.60208 29.258 2.03971C30.3827 1.45571 31.6481 1.16371 33.054 1.16371C35.0872 1.16371 36.7094 1.66119 37.9206 2.65615C39.1319 3.62948 39.943 4.73259 40.354 5.96548L37.0771 7.36059C36.8392 6.62519 36.3849 5.9763 35.7144 5.41393C35.0439 4.85156 34.1787 4.57037 33.1189 4.57037C32.059 4.57037 31.1614 4.84074 30.426 5.38148C29.7122 5.92222 29.3553 6.61437 29.3553 7.45793C29.3553 8.25822 29.6798 8.91792 30.3287 9.43704C30.9775 9.95615 31.9941 10.4536 33.3784 10.9295L34.8384 11.4161C36.8284 12.1083 38.3641 13.0167 39.4455 14.1415C40.5486 15.2446 41.1002 16.7262 41.1002 18.5864C41.1002 20.1004 40.7109 21.3766 39.9322 22.4148C39.1535 23.4314 38.1586 24.1884 36.9473 24.6859C35.7577 25.1834 34.5248 25.4321 33.2486 25.4321ZM52.1437 1.68282H56.2966L65.0242 24.913H61.001L58.9246 18.9757H49.5482L47.4393 24.913H43.4162L52.1437 1.68282ZM57.6917 15.6015L55.2259 8.69081L54.3175 5.99793H54.1228L53.2144 8.69081L50.7486 15.6015H57.6917ZM71.4111 5.15437H64.9223V1.68282H81.5338V5.15437H75.0449V24.913H71.4111V5.15437Z" fill="#FFDDAA"/>
</g>
<defs>
<clipPath id="clip0_306_1106">
<rect width="81.5652" height="28" fill="white" transform="translate(0.82605)"/>
</clipPath>
</defs>
</svg>
