<svg width="82" height="28" viewBox="0 0 82 28" fill="none" xmlns="http://www.w3.org/2000/svg">
<g clip-path="url(#clip0_306_1104)">
<rect width="81.5652" height="28" transform="translate(0.260864)" fill="black"/>
<path d="M36.4232 1.68282H50.5365V5.15437H40.057V11.8379H49.4983V15.277H40.057V24.913H36.4232V1.68282ZM55.0369 1.68282H63.2129C64.5972 1.68282 65.8626 1.98563 67.0089 2.59126C68.1553 3.19689 69.0529 4.04045 69.7018 5.12193C70.3723 6.20341 70.7076 7.42548 70.7076 8.78815C70.7076 10.3455 70.1993 11.7298 69.1827 12.941C68.1877 14.1523 66.9332 14.9634 65.4192 15.3744L65.3867 15.5366L71.7458 24.7184V24.913H67.528L61.396 15.8286H58.6707V24.913H55.0369V1.68282ZM63.1156 12.4544C64.1971 12.4544 65.1163 12.1083 65.8734 11.4161C66.6304 10.724 67.0089 9.83718 67.0089 8.7557C67.0089 8.15007 66.8575 7.56607 66.5547 7.0037C66.2519 6.44133 65.8193 5.98711 65.2569 5.64104C64.6946 5.27334 64.024 5.08948 63.2454 5.08948H58.6707V12.4544H63.1156ZM75.5517 1.68282H79.1855V24.913H75.5517V1.68282Z" fill="#FFDDAA"/>
</g>
<defs>
<clipPath id="clip0_306_1104">
<rect width="81.5652" height="28" fill="white" transform="translate(0.260864)"/>
</clipPath>
</defs>
</svg>
