<svg width="82" height="28" viewBox="0 0 82 28" fill="none" xmlns="http://www.w3.org/2000/svg">
<g clip-path="url(#clip0_306_1088)">
<rect width="81.5652" height="28" fill="black"/>
<path d="M3.84461 1.68282H8.77616L15.4597 19.3001H15.6544L22.3379 1.68282H27.2695V24.913H23.6681V11.9028L23.8628 7.71748H23.6681L17.017 24.913H14.097L7.44594 7.71748H7.25127L7.44594 11.9028V24.913H3.84461V1.68282ZM43.7829 25.4321C41.5334 25.4321 39.4895 24.9022 37.6509 23.8424C35.8124 22.7609 34.3632 21.2901 33.3034 19.4299C32.2652 17.5698 31.746 15.5258 31.746 13.2979C31.746 11.0701 32.2652 9.03689 33.3034 7.19837C34.3632 5.33822 35.8124 3.86741 37.6509 2.78593C39.4895 1.70445 41.5334 1.16371 43.7829 1.16371C46.0324 1.16371 48.0656 1.70445 49.8825 2.78593C51.721 3.86741 53.1702 5.33822 54.23 7.19837C55.2899 9.03689 55.8198 11.0701 55.8198 13.2979C55.8198 15.5258 55.2899 17.5698 54.23 19.4299C53.1918 21.2901 51.7534 22.7609 49.9149 23.8424C48.0764 24.9022 46.0324 25.4321 43.7829 25.4321ZM43.7829 21.9606C45.3186 21.9606 46.7246 21.5929 48.0007 20.8575C49.2769 20.1221 50.2826 19.1055 51.018 17.8077C51.7534 16.4883 52.1211 14.985 52.1211 13.2979C52.1211 11.6108 51.7534 10.1184 51.018 8.82059C50.2826 7.50119 49.2769 6.47378 48.0007 5.73837C46.7246 5.00297 45.3186 4.63526 43.7829 4.63526C42.2472 4.63526 40.8413 5.00297 39.5652 5.73837C38.289 6.47378 37.2724 7.50119 36.5154 8.82059C35.78 10.1184 35.4123 11.6108 35.4123 13.2979C35.4123 14.985 35.78 16.4883 36.5154 17.8077C37.2724 19.1055 38.289 20.1221 39.5652 20.8575C40.8413 21.5929 42.2472 21.9606 43.7829 21.9606ZM60.6211 1.68282H64.9362L75.3184 18.5864H75.5131L75.3184 14.109V1.68282H78.9197V24.913H75.1237L64.2224 7.13348H64.0277L64.2224 11.6108V24.913H60.6211V1.68282Z" fill="#FFDDAA"/>
</g>
<defs>
<clipPath id="clip0_306_1088">
<rect width="81.5652" height="28" fill="white"/>
</clipPath>
</defs>
</svg>
