<svg width="82" height="28" viewBox="0 0 82 28" fill="none" xmlns="http://www.w3.org/2000/svg">
<g clip-path="url(#clip0_306_1086)">
<rect width="81.5652" height="28" transform="translate(0.391235)" fill="black"/>
<path d="M25.6532 25.4321C23.7282 25.4321 21.9978 24.8698 20.4621 23.745C18.9264 22.6203 17.8666 21.0413 17.2826 19.0081L20.7217 17.613C21.0677 18.8892 21.6734 19.9382 22.5386 20.7601C23.4254 21.5604 24.4852 21.9606 25.7181 21.9606C26.8645 21.9606 27.8378 21.6686 28.6381 21.0846C29.4384 20.479 29.8385 19.657 29.8385 18.6188C29.8385 17.6671 29.4817 16.8884 28.7679 16.2828C28.0757 15.6556 26.8537 15.0283 25.1017 14.401L23.6417 13.8819C22.0843 13.3412 20.7757 12.5625 19.7159 11.5459C18.656 10.5293 18.1261 9.1883 18.1261 7.52282C18.1261 6.37645 18.4397 5.31659 19.067 4.34326C19.6943 3.36993 20.5594 2.60208 21.6626 2.03971C22.7873 1.45571 24.0526 1.16371 25.4586 1.16371C27.4917 1.16371 29.114 1.66119 30.3252 2.65615C31.5365 3.62948 32.3476 4.73259 32.7585 5.96548L29.4817 7.36059C29.2437 6.62519 28.7895 5.9763 28.119 5.41393C27.4485 4.85156 26.5833 4.57037 25.5234 4.57037C24.4636 4.57037 23.566 4.84074 22.8306 5.38148C22.1168 5.92222 21.7599 6.61437 21.7599 7.45793C21.7599 8.25822 22.0843 8.91792 22.7332 9.43704C23.3821 9.95615 24.3987 10.4536 25.783 10.9295L27.243 11.4161C29.2329 12.1083 30.7686 13.0167 31.8501 14.1415C32.9532 15.2446 33.5048 16.7262 33.5048 18.5864C33.5048 20.1004 33.1154 21.3766 32.3368 22.4148C31.5581 23.4314 30.5631 24.1884 29.3519 24.6859C28.1623 25.1834 26.9294 25.4321 25.6532 25.4321ZM46.682 25.4321C44.9516 25.4321 43.4159 25.0428 42.0749 24.2641C40.7555 23.4855 39.7281 22.3824 38.9927 20.9548C38.2573 19.5273 37.8896 17.8726 37.8896 15.9908V1.68282H41.4909V16.1855C41.4909 17.8942 41.9343 19.2893 42.8211 20.3708C43.7296 21.4307 45.0165 21.9606 46.682 21.9606C48.3475 21.9606 49.6236 21.4307 50.5105 20.3708C51.3973 19.311 51.8407 17.9158 51.8407 16.1855V1.68282H55.4745V15.9908C55.4745 17.851 55.1176 19.4948 54.4038 20.9224C53.69 22.3499 52.6734 23.4638 51.354 24.2641C50.0346 25.0428 48.4773 25.4321 46.682 25.4321ZM61.0123 1.68282H65.3274L75.7096 18.5864H75.9043L75.7096 14.109V1.68282H79.311V24.913H75.515L64.6136 7.13348H64.419L64.6136 11.6108V24.913H61.0123V1.68282Z" fill="#FFDDAA"/>
</g>
<defs>
<clipPath id="clip0_306_1086">
<rect width="81.5652" height="28" fill="white" transform="translate(0.391235)"/>
</clipPath>
</defs>
</svg>
