<svg width="83" height="28" viewBox="0 0 83 28" fill="none" xmlns="http://www.w3.org/2000/svg">
<g clip-path="url(#clip0_306_1098)">
<rect width="81.5652" height="28" transform="translate(0.565186)" fill="black"/>
<path d="M29.1702 5.15437H22.6813V1.68282H39.2928V5.15437H32.8039V24.913H29.1702V5.15437ZM51.8303 25.4321C50.0999 25.4321 48.5642 25.0428 47.2232 24.2641C45.9038 23.4855 44.8764 22.3824 44.141 20.9548C43.4056 19.5273 43.0379 17.8726 43.0379 15.9908V1.68282H46.6392V16.1855C46.6392 17.8942 47.0826 19.2893 47.9694 20.3708C48.8779 21.4307 50.1648 21.9606 51.8303 21.9606C53.4958 21.9606 54.7719 21.4307 55.6587 20.3708C56.5456 19.311 56.989 17.9158 56.989 16.1855V1.68282H60.6227V15.9908C60.6227 17.851 60.2658 19.4948 59.5521 20.9224C58.8383 22.3499 57.8217 23.4638 56.5023 24.2641C55.1829 25.0428 53.6256 25.4321 51.8303 25.4321ZM66.1606 1.68282H80.2739V5.15437H69.7944V11.5784H79.2357V15.0175H69.7944V21.4415H80.2739V24.913H66.1606V1.68282Z" fill="#FFDDAA"/>
</g>
<defs>
<clipPath id="clip0_306_1098">
<rect width="81.5652" height="28" fill="white" transform="translate(0.565186)"/>
</clipPath>
</defs>
</svg>
