<svg width="82" height="28" viewBox="0 0 82 28" fill="none" xmlns="http://www.w3.org/2000/svg">
<g clip-path="url(#clip0_306_1100)">
<rect width="81.5652" height="28" transform="translate(0.130432)" fill="black"/>
<path d="M7.56922 1.68282H11.6248L15.2261 16.6397L15.6154 18.6513H15.8101L16.3292 16.6397L20.9688 1.68282H24.6025L29.015 16.6397L29.5341 18.6188H29.7288L30.1181 16.6397L33.7194 1.68282H37.775L31.643 24.913H27.7821L23.3696 9.59926L22.883 7.52282H22.6883L22.1368 9.59926L17.5297 24.913H13.7661L7.56922 1.68282ZM41.6308 1.68282H55.7441V5.15437H45.2646V11.5784H54.7059V15.0175H45.2646V21.4415H55.7441V24.913H41.6308V1.68282ZM60.9099 1.68282H68.3396C70.7405 1.68282 72.8386 2.16949 74.6339 3.14282C76.4291 4.11615 77.8026 5.48963 78.7543 7.26326C79.7276 9.01526 80.2143 11.0268 80.2143 13.2979C80.2143 15.569 79.7276 17.5914 78.7543 19.365C77.8026 21.117 76.4291 22.4797 74.6339 23.453C72.8386 24.4264 70.7405 24.913 68.3396 24.913H60.9099V1.68282ZM68.2748 21.4415C70.8703 21.4415 72.8927 20.7277 74.3419 19.3001C75.8127 17.851 76.5481 15.8502 76.5481 13.2979C76.5481 10.7673 75.8127 8.77733 74.3419 7.32815C72.8927 5.87896 70.8703 5.15437 68.2748 5.15437H64.5436V21.4415H68.2748Z" fill="#FFDDAA"/>
</g>
<defs>
<clipPath id="clip0_306_1100">
<rect width="81.5652" height="28" fill="white" transform="translate(0.130432)"/>
</clipPath>
</defs>
</svg>
