<svg width="152" height="486" viewBox="0 0 152 486" fill="none" xmlns="http://www.w3.org/2000/svg">
<rect width="152" height="486" fill="black"/>
<path fill-rule="evenodd" clip-rule="evenodd" d="M56.0358 408.7C54.9563 407.359 53.0327 407.028 51.648 408.051C41.549 415.514 35 427.505 35 441.026C35 463.655 53.3447 482 75.9739 482C98.6032 482 116.948 463.655 116.948 441.026C116.948 427.615 110.504 415.708 100.544 408.233C99.1195 407.164 97.1231 407.54 96.0572 408.967C94.8584 410.572 95.3102 412.851 96.8952 414.076C104.996 420.338 110.212 430.15 110.212 441.181C110.212 460.09 94.8832 475.419 75.9739 475.419C57.0645 475.419 41.7354 460.09 41.7354 441.181C41.7354 430.061 47.0367 420.179 55.2498 413.924C56.8894 412.676 57.3278 410.306 56.0358 408.7Z" fill="#1E1E1E"/>
<path fill-rule="evenodd" clip-rule="evenodd" d="M56.0358 408.7C54.9563 407.359 53.0327 407.028 51.648 408.051C41.549 415.514 35 427.505 35 441.026C35 463.655 53.3447 482 75.9739 482C98.6032 482 116.948 463.655 116.948 441.026C116.948 427.615 110.504 415.708 100.544 408.233C99.1195 407.164 97.1231 407.54 96.0572 408.967C94.8584 410.572 95.3102 412.851 96.8952 414.076C104.996 420.338 110.212 430.15 110.212 441.181C110.212 460.09 94.8832 475.419 75.9739 475.419C57.0645 475.419 41.7354 460.09 41.7354 441.181C41.7354 430.061 47.0367 420.179 55.2498 413.924C56.8894 412.676 57.3278 410.306 56.0358 408.7Z" fill="#313131"/>
<path d="M76.4736 418L74.8786 416.489C69.2136 411.145 65.4736 407.609 65.4736 403.294C65.4736 399.758 68.1356 397 71.5236 397C73.4376 397 75.2746 397.927 76.4736 399.38C77.6726 397.927 79.5096 397 81.4236 397C84.8116 397 87.4736 399.758 87.4736 403.294C87.4736 407.609 83.7336 411.145 78.0686 416.489L76.4736 418Z" fill="#FFDDAA"/>
</svg>
