<svg width="126" height="314" viewBox="0 0 126 314" fill="none" xmlns="http://www.w3.org/2000/svg">
<rect x="7.99155" y="7.98251" width="110.242" height="297.998" rx="55.121" fill="black"/>
<rect x="4.28655" y="4.27751" width="117.652" height="305.408" rx="58.826" stroke="white" stroke-opacity="0.15" stroke-width="7.41"/>
<g clip-path="url(#clip0_386_297)">
<path d="M23.4943 61.4413C23.4943 39.0518 41.6446 20.9015 64.0341 20.9015V20.9015C86.4236 20.9015 104.574 39.0518 104.574 61.4413V239.603C104.574 261.992 86.4236 280.142 64.0341 280.142V280.142C41.6446 280.142 23.4943 261.992 23.4943 239.603V61.4413Z" fill="black"/>
<g clip-path="url(#clip1_386_297)">
<rect width="38.9395" height="50.6747" transform="translate(24.0278 104.115)" fill="black"/>
<path d="M43.4791 154.089C39.7307 154.089 36.3989 153.002 33.4835 150.827C30.6144 148.605 28.3932 145.621 26.8198 141.872C25.2927 138.078 24.5292 133.867 24.5292 129.239C24.5292 124.611 25.2927 120.423 26.8198 116.675C28.3932 112.881 30.6144 109.896 33.4835 107.721C36.3526 105.5 39.6845 104.389 43.4791 104.389C47.2737 104.389 50.6055 105.5 53.4746 107.721C56.3437 109.896 58.5418 112.881 60.0689 116.675C61.6423 120.423 62.429 124.611 62.429 129.239C62.429 133.867 61.6423 138.078 60.0689 141.872C58.5418 145.621 56.3206 148.605 53.4052 150.827C50.5361 153.002 47.2274 154.089 43.4791 154.089ZM43.4791 148.467C46.1168 148.467 48.4074 147.634 50.351 145.968C52.2946 144.255 53.7985 141.942 54.8629 139.026C55.9272 136.111 56.4594 132.849 56.4594 129.239C56.4594 125.63 55.9272 122.367 54.8629 119.452C53.7985 116.536 52.2946 114.246 50.351 112.58C48.4074 110.868 46.1168 110.011 43.4791 110.011C40.8413 110.011 38.5507 110.868 36.6071 112.58C34.6635 114.246 33.1596 116.536 32.0952 119.452C31.0309 122.367 30.4987 125.63 30.4987 129.239C30.4987 132.849 31.0309 136.111 32.0952 139.026C33.1596 141.942 34.6635 144.255 36.6071 145.968C38.5507 147.634 40.8413 148.467 43.4791 148.467Z" fill="var(--accent-color)"/>
</g>
<g clip-path="url(#clip2_386_297)">
<rect width="38.9395" height="50.6747" transform="translate(24.0278 162.257)" fill="black"/>
<path d="M49.9162 200.917H27.1486V196.475L49.3609 163.642H55.747V195.364H61.8554V200.917H55.747V211.121H49.9162V200.917ZM49.9162 195.364V172.249H49.6386L33.8817 195.364H49.9162Z" fill="var(--accent-color)"/>
</g>
<g clip-path="url(#clip3_386_297)">
<rect width="38.9395" height="50.6747" transform="translate(65.1009 104.115)" fill="black"/>
<path d="M84.5522 154.089C80.8039 154.089 77.472 153.002 74.5567 150.827C71.6876 148.605 69.4663 145.621 67.893 141.872C66.3659 138.078 65.6023 133.867 65.6023 129.239C65.6023 124.611 66.3659 120.423 67.893 116.675C69.4663 112.881 71.6876 109.896 74.5567 107.721C77.4258 105.5 80.7576 104.389 84.5522 104.389C88.3468 104.389 91.6787 105.5 94.5478 107.721C97.4169 109.896 99.615 112.881 101.142 116.675C102.715 120.423 103.502 124.611 103.502 129.239C103.502 133.867 102.715 138.078 101.142 141.872C99.615 145.621 97.3937 148.605 94.4784 150.827C91.6093 153.002 88.3006 154.089 84.5522 154.089ZM84.5522 148.467C87.1899 148.467 89.4806 147.634 91.4242 145.968C93.3677 144.255 94.8717 141.942 95.936 139.026C97.0004 136.111 97.5326 132.849 97.5326 129.239C97.5326 125.63 97.0004 122.367 95.936 119.452C94.8717 116.536 93.3677 114.246 91.4242 112.58C89.4806 110.868 87.1899 110.011 84.5522 110.011C81.9145 110.011 79.6239 110.868 77.6803 112.58C75.7367 114.246 74.2327 116.536 73.1684 119.452C72.1041 122.367 71.5719 125.63 71.5719 129.239C71.5719 132.849 72.1041 136.111 73.1684 139.026C74.2327 141.942 75.7367 144.255 77.6803 145.968C79.6239 147.634 81.9145 148.467 84.5522 148.467Z" fill="var(--accent-color)"/>
</g>
<g clip-path="url(#clip4_386_297)">
<rect width="38.9395" height="50.6747" transform="translate(65.1009 162.257)" fill="black"/>
<path d="M89.9226 200.917H67.1549V196.475L89.3672 163.642H95.7533V195.364H101.862V200.917H95.7533V211.121H89.9226V200.917ZM89.9226 195.364V172.249H89.6449L73.888 195.364H89.9226Z" fill="var(--accent-color)"/>
</g>
<path fill-rule="evenodd" clip-rule="evenodd" d="M51.1578 232.504C50.4759 231.656 49.2607 231.447 48.3859 232.094C42.006 236.808 37.8687 244.383 37.8687 252.925C37.8687 267.221 49.4577 278.809 63.7534 278.809C78.0491 278.809 89.6381 267.221 89.6381 252.925C89.6381 244.452 85.5675 236.931 79.2753 232.209C78.3752 231.533 77.1141 231.77 76.4407 232.672V232.672C75.6834 233.686 75.9688 235.125 76.9701 235.899C82.0876 239.855 85.383 246.054 85.383 253.023C85.383 264.968 75.6991 274.652 63.7534 274.652C51.8077 274.652 42.1238 264.968 42.1238 253.023C42.1238 245.998 45.4728 239.755 50.6613 235.804C51.6971 235.015 51.9741 233.518 51.1578 232.504V232.504Z" fill="#1E1E1E"/>
<path fill-rule="evenodd" clip-rule="evenodd" d="M51.1578 232.504C50.4759 231.656 49.2607 231.447 48.3859 232.094C42.006 236.808 37.8687 244.383 37.8687 252.925C37.8687 267.221 49.4577 278.809 63.7534 278.809C78.0491 278.809 89.6381 267.221 89.6381 252.925C89.6381 244.452 85.5675 236.931 79.2753 232.209C78.3752 231.533 77.1141 231.77 76.4407 232.672V232.672C75.6834 233.686 75.9688 235.125 76.9701 235.899C82.0876 239.855 85.383 246.054 85.383 253.023C85.383 264.968 75.6991 274.652 63.7534 274.652C51.8077 274.652 42.1238 264.968 42.1238 253.023C42.1238 245.998 45.4728 239.755 50.6613 235.804C51.6971 235.015 51.9741 233.518 51.1578 232.504V232.504Z" fill="#262626"/>
<path d="M64.069 238.378L63.0614 237.424C59.4826 234.048 57.1199 231.814 57.1199 229.088C57.1199 226.854 58.8016 225.112 60.9419 225.112C62.1511 225.112 63.3116 225.698 64.069 226.616C64.8265 225.698 65.987 225.112 67.1961 225.112C69.3364 225.112 71.0181 226.854 71.0181 229.088C71.0181 231.814 68.6554 234.048 65.0766 237.424L64.069 238.378Z" fill="var(--accent-color)"/>
<g clip-path="url(#clip5_386_297)">
<rect width="43.5083" height="14.9357" transform="translate(27.2283 77.4438)" fill="black"/>
<path d="M31.1962 78.8055H33.3595L35.2805 86.7837L35.4882 87.8567H35.5921L35.869 86.7837L38.3438 78.8055H40.2821L42.6358 86.7837L42.9127 87.8394H43.0165L43.2242 86.7837L45.1452 78.8055H47.3085L44.0376 91.1969H41.9781L39.6245 83.0283L39.3649 81.9206H39.261L38.9668 83.0283L36.5093 91.1969H34.5018L31.1962 78.8055ZM49.3653 78.8055H56.8936V80.6573H51.3036V84.0839H56.3398V85.9184H51.3036V89.3451H56.8936V91.1969H49.3653V78.8055ZM59.6491 78.8055H63.6122C64.8929 78.8055 66.0121 79.0651 66.9697 79.5843C67.9273 80.1035 68.6599 80.8361 69.1676 81.7822C69.6868 82.7167 69.9464 83.7897 69.9464 85.0012C69.9464 86.2126 69.6868 87.2914 69.1676 88.2375C68.6599 89.172 67.9273 89.8989 66.9697 90.4181C66.0121 90.9373 64.8929 91.1969 63.6122 91.1969H59.6491V78.8055ZM63.5776 89.3451C64.9621 89.3451 66.0409 88.9644 66.8139 88.2029C67.5985 87.4299 67.9908 86.3626 67.9908 85.0012C67.9908 83.6513 67.5985 82.5898 66.8139 81.8168C66.0409 81.0438 64.9621 80.6573 63.5776 80.6573H61.5874V89.3451H63.5776Z" fill="var(--accent-color)"/>
</g>
<g clip-path="url(#clip6_386_297)">
<rect width="10.6684" height="15.4691" transform="translate(74.169 76.9104)" fill="black"/>
<path d="M79.6405 81.4516L77.7044 82.8518L76.7363 81.3825L80.211 78.8759H81.542V90.7H79.6405V81.4516Z" fill="white"/>
</g>
<g clip-path="url(#clip7_386_297)">
<rect width="10.6684" height="15.4691" transform="translate(46.4313 246.004)" fill="black"/>
<path d="M51.9028 250.545L49.9667 251.945L48.9986 250.476L52.4733 247.969H53.8043V259.793H51.9028V250.545Z" fill="white"/>
</g>
<g clip-path="url(#clip8_386_297)">
<rect width="10.6684" height="15.4691" transform="translate(85.3708 76.9104)" fill="black"/>
<path d="M90.728 90.9766C89.9212 90.9766 89.201 90.7922 88.5671 90.4234C87.9333 90.0431 87.4435 89.5418 87.0978 88.9195C86.752 88.2971 86.5792 87.6345 86.5792 86.9315C86.5792 86.2515 86.7117 85.6119 86.9767 85.0127C87.2418 84.4019 87.6336 83.7162 88.1522 82.9555L91.1428 78.5647L92.6468 79.6019L89.9501 83.3531L90.0192 83.4223C90.3304 83.2379 90.7222 83.1457 91.1947 83.1457C91.794 83.1457 92.3702 83.3128 92.9234 83.647C93.4881 83.9812 93.9433 84.4422 94.289 85.03C94.6463 85.6062 94.8249 86.2573 94.8249 86.9833C94.8249 87.7094 94.6347 88.3778 94.2544 88.9886C93.8857 89.5994 93.3843 90.0834 92.7505 90.4407C92.1282 90.7979 91.454 90.9766 90.728 90.9766ZM90.7107 89.196C91.1025 89.196 91.4713 89.1038 91.817 88.9195C92.1627 88.7235 92.4336 88.4585 92.6295 88.1243C92.8369 87.7901 92.9407 87.4155 92.9407 87.0006C92.9407 86.5858 92.8369 86.2112 92.6295 85.877C92.422 85.5313 92.1455 85.2662 91.7997 85.0818C91.4655 84.8859 91.1025 84.7879 90.7107 84.7879C90.3188 84.7879 89.9501 84.8859 89.6043 85.0818C89.2586 85.2662 88.982 85.5313 88.7746 85.877C88.5671 86.2112 88.4634 86.5858 88.4634 87.0006C88.4634 87.4155 88.5614 87.7901 88.7573 88.1243C88.9647 88.4585 89.2413 88.7235 89.587 88.9195C89.9328 89.1038 90.3073 89.196 90.7107 89.196Z" fill="white"/>
</g>
<g clip-path="url(#clip9_386_297)">
<rect width="10.6684" height="15.4691" transform="translate(58.1665 246.004)" fill="black"/>
<path d="M63.4997 260.1C62.5317 260.1 61.6789 259.829 60.9413 259.287C60.2037 258.734 59.6333 257.991 59.2299 257.057C58.8381 256.112 58.6422 255.063 58.6422 253.911C58.6422 252.747 58.8381 251.698 59.2299 250.765C59.6333 249.82 60.2037 249.076 60.9413 248.535C61.6789 247.993 62.5317 247.722 63.4997 247.722C64.4678 247.722 65.3148 247.993 66.0409 248.535C66.7784 249.076 67.3431 249.82 67.735 250.765C68.1383 251.698 68.34 252.747 68.34 253.911C68.34 255.063 68.1383 256.112 67.735 257.057C67.3431 257.991 66.7784 258.734 66.0409 259.287C65.3033 259.829 64.4563 260.1 63.4997 260.1ZM63.4997 258.302C64.0875 258.302 64.6003 258.112 65.0382 257.731C65.4877 257.339 65.8277 256.815 66.0582 256.158C66.3002 255.49 66.4212 254.741 66.4212 253.911C66.4212 253.081 66.3002 252.332 66.0582 251.664C65.8277 250.995 65.4877 250.471 65.0382 250.091C64.6003 249.71 64.0875 249.52 63.4997 249.52C62.9005 249.52 62.3819 249.71 61.9439 250.091C61.506 250.471 61.166 250.995 60.924 251.664C60.6935 252.332 60.5783 253.081 60.5783 253.911C60.5783 254.741 60.6935 255.49 60.924 256.158C61.166 256.815 61.506 257.339 61.9439 257.731C62.3819 258.112 62.9005 258.302 63.4997 258.302Z" fill="white"/>
</g>
<g clip-path="url(#clip10_386_297)">
<rect width="10.6684" height="15.4691" transform="translate(69.9017 246.004)" fill="black"/>
<path d="M75.2588 260.07C74.4521 260.07 73.7319 259.886 73.098 259.517C72.4642 259.136 71.9744 258.635 71.6286 258.013C71.2829 257.391 71.11 256.728 71.11 256.025C71.11 255.345 71.2426 254.705 71.5076 254.106C71.7727 253.495 72.1645 252.81 72.6831 252.049L75.6737 247.658L77.1777 248.695L74.4809 252.447L74.5501 252.516C74.8613 252.331 75.2531 252.239 75.7256 252.239C76.3249 252.239 76.9011 252.406 77.4543 252.74C78.019 253.075 78.4742 253.536 78.8199 254.123C79.1772 254.7 79.3558 255.351 79.3558 256.077C79.3558 256.803 79.1656 257.471 78.7853 258.082C78.4165 258.693 77.9152 259.177 77.2814 259.534C76.6591 259.891 75.9849 260.07 75.2588 260.07ZM75.2416 258.289C75.6334 258.289 76.0022 258.197 76.3479 258.013C76.6936 257.817 76.9645 257.552 77.1604 257.218C77.3678 256.883 77.4715 256.509 77.4715 256.094C77.4715 255.679 77.3678 255.305 77.1604 254.97C76.9529 254.625 76.6764 254.36 76.3306 254.175C75.9964 253.979 75.6334 253.881 75.2416 253.881C74.8497 253.881 74.4809 253.979 74.1352 254.175C73.7895 254.36 73.5129 254.625 73.3055 254.97C73.098 255.305 72.9943 255.679 72.9943 256.094C72.9943 256.509 73.0922 256.883 73.2882 257.218C73.4956 257.552 73.7722 257.817 74.1179 258.013C74.4637 258.197 74.8382 258.289 75.2416 258.289Z" fill="white"/>
</g>
<rect width="17.0694" height="17.0694" transform="translate(28.8285 49.7061)" fill="black"/>
<path d="M41.6305 55.3958H40.9193V53.9734C40.9193 52.0104 39.3262 50.4173 37.3632 50.4173C35.4002 50.4173 33.8071 52.0104 33.8071 53.9734V55.3958H33.0959C32.3135 55.3958 31.6734 56.0359 31.6734 56.8183V63.9305C31.6734 64.7129 32.3135 65.353 33.0959 65.353H41.6305C42.4129 65.353 43.053 64.7129 43.053 63.9305V56.8183C43.053 56.0359 42.4129 55.3958 41.6305 55.3958ZM37.3632 61.7969C36.5809 61.7969 35.9407 61.1568 35.9407 60.3744C35.9407 59.5921 36.5809 58.952 37.3632 58.952C38.1455 58.952 38.7856 59.5921 38.7856 60.3744C38.7856 61.1568 38.1455 61.7969 37.3632 61.7969ZM39.568 55.3958H35.1584V53.9734C35.1584 52.7572 36.147 51.7686 37.3632 51.7686C38.5794 51.7686 39.568 52.7572 39.568 53.9734V55.3958Z" fill="#676767"/>
<g clip-path="url(#clip11_386_297)">
<rect width="17.0694" height="17.0694" transform="translate(80.9257 49.7061)" fill="black"/>
<path d="M90.1716 59.6632H88.7491V55.3959H90.1716V59.6632ZM90.1716 62.5081H88.7491V61.0856H90.1716V62.5081ZM92.8031 52.551H91.594V51.1285H87.3267V52.551H86.1176C85.6198 52.551 85.193 52.9777 85.193 53.4755V64.3573C85.193 64.9262 85.6198 65.353 86.1176 65.353H92.732C93.2298 65.353 93.6566 64.9262 93.6566 64.4284V53.4755C93.7277 52.9777 93.301 52.551 92.8031 52.551Z" fill="#FF4747"/>
</g>
</g>
<defs>
<clipPath id="clip0_386_297">
<path d="M23.4943 61.4413C23.4943 39.0518 41.6446 20.9015 64.0341 20.9015V20.9015C86.4236 20.9015 104.574 39.0518 104.574 61.4413V239.603C104.574 261.992 86.4236 280.142 64.0341 280.142V280.142C41.6446 280.142 23.4943 261.992 23.4943 239.603V61.4413Z" fill="white"/>
</clipPath>
<clipPath id="clip1_386_297">
<rect width="38.9395" height="50.6747" fill="white" transform="translate(24.0278 104.115)"/>
</clipPath>
<clipPath id="clip2_386_297">
<rect width="38.9395" height="50.6747" fill="white" transform="translate(24.0278 162.257)"/>
</clipPath>
<clipPath id="clip3_386_297">
<rect width="38.9395" height="50.6747" fill="white" transform="translate(65.1009 104.115)"/>
</clipPath>
<clipPath id="clip4_386_297">
<rect width="38.9395" height="50.6747" fill="white" transform="translate(65.1009 162.257)"/>
</clipPath>
<clipPath id="clip5_386_297">
<rect width="43.5083" height="14.9357" fill="white" transform="translate(27.2283 77.4438)"/>
</clipPath>
<clipPath id="clip6_386_297">
<rect width="10.6684" height="15.4691" fill="white" transform="translate(74.169 76.9104)"/>
</clipPath>
<clipPath id="clip7_386_297">
<rect width="10.6684" height="15.4691" fill="white" transform="translate(46.4313 246.004)"/>
</clipPath>
<clipPath id="clip8_386_297">
<rect width="10.6684" height="15.4691" fill="white" transform="translate(85.3708 76.9104)"/>
</clipPath>
<clipPath id="clip9_386_297">
<rect width="10.6684" height="15.4691" fill="white" transform="translate(58.1665 246.004)"/>
</clipPath>
<clipPath id="clip10_386_297">
<rect width="10.6684" height="15.4691" fill="white" transform="translate(69.9017 246.004)"/>
</clipPath>
<clipPath id="clip11_386_297">
<rect width="17.0694" height="17.0694" fill="white" transform="translate(80.9257 49.7061)"/>
</clipPath>
</defs>
</svg>
