<svg xmlns="http://www.w3.org/2000/svg" width="256" height="256" fill="none" viewBox="0 0 256 256"><g fill-rule="evenodd" clip-path="url(#a)" clip-rule="evenodd"><path fill="#FBBC05" d="M46.95 8.838c-8.747 3.025-16.96 8.029-23.943 15.012-24.639 24.639-24.639 64.586 0 89.225l46.813 46.813 27.917-17.367L45.65 90.432c-12.134-12.133-12.134-31.806 0-43.94a30.944 30.944 0 0 1 19.143-8.972L46.95 8.838Z"/><path fill="#34A853" d="m97.737 142.521 68.987 68.987a30.962 30.962 0 0 0 10.64 6.969l20.803 33.441c-19.138 2.89-39.349-3.032-54.085-17.768L69.82 159.888l27.917-17.367Z"/><path fill="#4285F4" d="m151.914 108.818 58.75 58.75c12.134 12.133 12.134 31.806 0 43.94-9.003 9.002-22.156 11.325-33.3 6.969l20.803 33.441c12.861-1.943 25.236-7.865 35.139-17.768 24.639-24.639 24.639-64.586 0-89.225L179.831 91.45l-27.917 17.368Z"/><path fill="#EA4335" d="m179.831 91.45-67.6-67.6C94.576 6.195 69.061 1.191 46.949 8.838L64.792 37.52c8.865-.805 18.01 2.186 24.797 8.972l62.325 62.326 27.917-17.367Z"/></g><defs><clipPath id="a"><path fill="#fff" d="M0 0h256v256H0z"/></clipPath></defs></svg>