<svg width="20" height="29" viewBox="0 0 20 29" fill="none" xmlns="http://www.w3.org/2000/svg">
<g clip-path="url(#clip0_306_822)">
<rect width="20" height="29" fill="black"/>
<path d="M6.34875 23.6204L11.4043 16.588L11.2747 16.4584C10.6913 16.804 9.95678 16.9769 9.07098 16.9769C7.94752 16.9769 6.85647 16.6636 5.79783 16.0371C4.76079 15.4105 3.9074 14.5571 3.23764 13.4769C2.5895 12.375 2.26542 11.1435 2.26542 9.78243C2.26542 8.42132 2.6111 7.16824 3.30246 6.02317C4.01542 4.87811 4.95524 3.97071 6.1219 3.30095C7.31017 2.6312 8.58487 2.29632 9.94598 2.29632C11.4583 2.29632 12.8086 2.6528 13.9969 3.36577C15.1852 4.05713 16.1034 4.98614 16.7515 6.1528C17.3997 7.31947 17.7238 8.56176 17.7238 9.87966C17.7238 11.1543 17.4753 12.3642 16.9784 13.5093C16.4815 14.6327 15.7469 15.9074 14.7747 17.3334L9.1682 25.5648L6.34875 23.6204ZM9.97838 13.8982C10.713 13.8982 11.4043 13.7253 12.0525 13.3797C12.7006 13.0124 13.2191 12.5155 13.608 11.8889C13.9969 11.2408 14.1913 10.5278 14.1913 9.75003C14.1913 8.97225 13.9969 8.27009 13.608 7.64355C13.2407 7.017 12.733 6.53089 12.0849 6.18521C11.4367 5.81793 10.7346 5.63429 9.97838 5.63429C9.24382 5.63429 8.55246 5.81793 7.90431 6.18521C7.25616 6.53089 6.73764 7.017 6.34875 7.64355C5.98147 8.27009 5.79783 8.97225 5.79783 9.75003C5.79783 10.5278 5.99227 11.2408 6.38116 11.8889C6.77005 12.5155 7.27777 13.0124 7.90431 13.3797C8.55246 13.7253 9.24382 13.8982 9.97838 13.8982Z" fill="white"/>
</g>
<defs>
<clipPath id="clip0_306_822">
<rect width="20" height="29" fill="white"/>
</clipPath>
</defs>
</svg>
