<svg width="20" height="29" viewBox="0 0 20 29" fill="none" xmlns="http://www.w3.org/2000/svg">
<g clip-path="url(#clip0_306_810)">
<rect width="20" height="29" fill="black"/>
<path d="M9.90743 25.5C8.24385 25.5 6.6991 25.0247 5.27317 24.0741C3.84725 23.1019 2.86422 21.6868 2.3241 19.8287L5.62965 18.4676C5.93212 19.6127 6.45064 20.4985 7.18521 21.125C7.94138 21.7516 8.84879 22.0648 9.90743 22.0648C10.9877 22.0648 11.9167 21.7408 12.6945 21.0926C13.4722 20.4229 13.8611 19.5803 13.8611 18.5648C13.8611 17.5278 13.4506 16.6852 12.6297 16.0371C11.8087 15.3673 10.7824 15.0324 9.55095 15.0324H7.63891V11.7593H9.35651C10.4151 11.7593 11.301 11.4784 12.0139 10.9167C12.7485 10.3334 13.1158 9.54478 13.1158 8.55095C13.1158 7.66515 12.7917 6.96299 12.1435 6.44447C11.4954 5.90435 10.6744 5.63429 9.68058 5.63429C8.70836 5.63429 7.93058 5.89355 7.34725 6.41206C6.78552 6.93058 6.37503 7.56793 6.11577 8.3241L2.84262 6.96299C3.27472 5.73151 4.0741 4.65126 5.24077 3.72225C6.40743 2.77163 7.89817 2.29632 9.71299 2.29632C11.0525 2.29632 12.2516 2.55558 13.3102 3.0741C14.3905 3.59262 15.233 4.31639 15.838 5.2454C16.4429 6.1528 16.7454 7.17904 16.7454 8.3241C16.7454 9.49077 16.4645 10.4846 15.9028 11.3056C15.3411 12.105 14.6497 12.7207 13.8287 13.1528V13.3472C14.909 13.801 15.7948 14.4923 16.4861 15.4213C17.1775 16.3503 17.5232 17.463 17.5232 18.7593C17.5232 20.0556 17.1883 21.2114 16.5185 22.2269C15.8704 23.2423 14.963 24.0417 13.7963 24.625C12.6513 25.2084 11.355 25.5 9.90743 25.5Z" fill="white"/>
</g>
<defs>
<clipPath id="clip0_306_810">
<rect width="20" height="29" fill="white"/>
</clipPath>
</defs>
</svg>
