<svg width="20" height="29" viewBox="0 0 20 29" fill="none" xmlns="http://www.w3.org/2000/svg">
<g clip-path="url(#clip0_306_820)">
<rect width="20" height="29" fill="black"/>
<path d="M9.99491 25.5C8.52577 25.5 7.19707 25.2084 6.0088 24.625C4.84213 24.0417 3.92392 23.2423 3.25417 22.2269C2.58441 21.1898 2.24954 20.0556 2.24954 18.8241C2.24954 17.6142 2.57361 16.5448 3.22176 15.6158C3.89151 14.6651 4.73411 13.9306 5.74954 13.4121V13.2176C4.95015 12.6775 4.2912 12.0077 3.77269 11.2084C3.25417 10.3874 2.99491 9.50157 2.99491 8.55095C2.99491 7.38429 3.28657 6.32564 3.86991 5.37503C4.47485 4.40281 5.30664 3.64663 6.36528 3.10651C7.44552 2.56639 8.6554 2.29632 9.99491 2.29632C11.3344 2.29632 12.5335 2.56639 13.5921 3.10651C14.6724 3.64663 15.5042 4.40281 16.0875 5.37503C16.6924 6.32564 16.9949 7.38429 16.9949 8.55095C16.9949 9.50157 16.7356 10.3874 16.2171 11.2084C15.6986 12.0077 15.0397 12.6775 14.2403 13.2176V13.4121C15.2557 13.9306 16.0875 14.6651 16.7356 15.6158C17.4054 16.5448 17.7403 17.6142 17.7403 18.8241C17.7403 20.0556 17.4054 21.1898 16.7356 22.2269C16.0659 23.2423 15.1369 24.0417 13.9486 24.625C12.7819 25.2084 11.464 25.5 9.99491 25.5ZM9.99491 11.7917C10.9887 11.7917 11.8097 11.5108 12.4579 10.9491C13.1276 10.3658 13.4625 9.59879 13.4625 8.64818C13.4625 7.71916 13.1384 6.98459 12.4903 6.44447C11.8421 5.88274 11.0103 5.60188 9.99491 5.60188C8.97947 5.60188 8.14768 5.88274 7.49954 6.44447C6.85139 6.98459 6.52731 7.71916 6.52731 8.64818C6.52731 9.59879 6.85139 10.3658 7.49954 10.9491C8.16929 11.5108 9.00108 11.7917 9.99491 11.7917ZM9.99491 22.1297C11.1832 22.1297 12.1662 21.8056 12.944 21.1574C13.7434 20.4877 14.1431 19.6235 14.1431 18.5648C14.1431 17.5278 13.7434 16.6744 12.944 16.0047C12.1662 15.3349 11.1832 15 9.99491 15C8.80664 15 7.81281 15.3349 7.01343 16.0047C6.23565 16.6744 5.84676 17.5278 5.84676 18.5648C5.84676 19.6235 6.23565 20.4877 7.01343 21.1574C7.81281 21.8056 8.80664 22.1297 9.99491 22.1297Z" fill="white"/>
</g>
<defs>
<clipPath id="clip0_306_820">
<rect width="20" height="29" fill="white"/>
</clipPath>
</defs>
</svg>
