<svg width="20" height="29" viewBox="0 0 20 29" fill="none" xmlns="http://www.w3.org/2000/svg">
<g clip-path="url(#clip0_306_808)">
<rect width="20" height="29" fill="black"/>
<path d="M2.75748 21.6111C3.44884 20.9198 4.80995 19.5587 6.84082 17.5278C8.87168 15.4753 10.222 14.0818 10.8917 13.3472C11.7991 12.375 12.4149 11.5864 12.739 10.9815C13.0846 10.3766 13.2575 9.6528 13.2575 8.81021C13.2575 7.96762 12.9334 7.23305 12.2853 6.60651C11.6371 5.97997 10.7621 5.66669 9.66026 5.66669C8.64483 5.66669 7.81304 5.96916 7.16489 6.5741C6.53835 7.15743 6.12785 7.83799 5.93341 8.61577L2.69267 7.28706C2.90872 6.50929 3.30841 5.74231 3.89174 4.98614C4.49668 4.22997 5.29606 3.59262 6.28989 3.0741C7.28372 2.55558 8.42878 2.29632 9.72507 2.29632C11.1294 2.29632 12.3717 2.58799 13.4519 3.17132C14.5538 3.73305 15.3964 4.51083 15.9797 5.50466C16.5846 6.47688 16.8871 7.55712 16.8871 8.7454C16.8871 10.0201 16.5522 11.2516 15.8825 12.4398C15.2343 13.6065 14.4025 14.6976 13.3871 15.713C12.955 16.1235 11.864 17.2037 10.114 18.9537C8.34236 20.7253 7.45656 21.6111 7.45656 21.6111L7.52137 21.7408H17.1788V24.9815H2.75748V21.6111Z" fill="white"/>
</g>
<defs>
<clipPath id="clip0_306_808">
<rect width="20" height="29" fill="white"/>
</clipPath>
</defs>
</svg>
