<svg width="20" height="29" viewBox="0 0 20 29" fill="none" xmlns="http://www.w3.org/2000/svg">
<g clip-path="url(#clip0_306_801)">
<rect width="20" height="29" fill="black"/>
<path d="M9.99827 25.5556C8.18345 25.5556 6.58469 25.0479 5.20197 24.0324C3.81926 22.9954 2.74981 21.6019 1.99364 19.8519C1.25907 18.0803 0.891789 16.1142 0.891789 13.9537C0.891789 11.7716 1.25907 9.80557 1.99364 8.05557C2.74981 6.28396 3.81926 4.89045 5.20197 3.87501C6.58469 2.85958 8.18345 2.35187 9.99827 2.35187C11.8131 2.35187 13.401 2.85958 14.7622 3.87501C16.1449 4.89045 17.2035 6.28396 17.9381 8.05557C18.6943 9.80557 19.0723 11.7716 19.0723 13.9537C19.0723 16.1142 18.6943 18.0803 17.9381 19.8519C17.2035 21.6019 16.1449 22.9954 14.7622 24.0324C13.3794 25.0479 11.7915 25.5556 9.99827 25.5556ZM9.99827 22.1852C11.1001 22.1852 12.0615 21.8287 12.8825 21.1158C13.7251 20.3812 14.3625 19.3982 14.7946 18.1667C15.2483 16.9136 15.4751 15.5093 15.4751 13.9537C15.4751 12.3982 15.2483 10.9938 14.7946 9.74075C14.3625 8.48767 13.7251 7.50464 12.8825 6.79168C12.0615 6.07872 11.1001 5.72224 9.99827 5.72224C8.87481 5.72224 7.90259 6.07872 7.0816 6.79168C6.26062 7.50464 5.62327 8.48767 5.16957 9.74075C4.73747 10.9938 4.52142 12.3982 4.52142 13.9537C4.52142 15.5093 4.73747 16.9136 5.16957 18.1667C5.62327 19.3982 6.26062 20.3812 7.0816 21.1158C7.90259 21.8287 8.87481 22.1852 9.99827 22.1852Z" fill="white"/>
</g>
<defs>
<clipPath id="clip0_306_801">
<rect width="20" height="29" fill="white"/>
</clipPath>
</defs>
</svg>
