<svg width="20" height="29" viewBox="0 0 20 29" fill="none" xmlns="http://www.w3.org/2000/svg">
<g clip-path="url(#clip0_306_814)">
<rect width="20" height="29" fill="black"/>
<path d="M9.80277 25.5C8.72252 25.5 7.65308 25.284 6.59444 24.8519C5.5574 24.3982 4.63919 23.7284 3.83981 22.8426C3.04043 21.9352 2.4787 20.8226 2.15462 19.5047L5.36296 18.2408C5.64382 19.4074 6.16234 20.3472 6.91851 21.0602C7.69629 21.7732 8.64691 22.1297 9.77036 22.1297C10.9802 22.1297 11.9849 21.7516 12.7843 20.9954C13.5836 20.2176 13.9833 19.2238 13.9833 18.0139C13.9833 16.804 13.5836 15.8102 12.7843 15.0324C12.0065 14.2331 11.0018 13.8334 9.77036 13.8334C9.07901 13.8334 8.43086 13.9846 7.82592 14.2871C7.22098 14.5895 6.72407 15.0108 6.33518 15.551L2.80277 13.9954L4.16388 2.81484H16.2194V6.05558H7.14536L6.33518 11.8889L6.52962 11.9213C7.65308 11.0355 8.96018 10.5926 10.4509 10.5926C11.704 10.5926 12.8707 10.9059 13.9509 11.5324C15.0528 12.159 15.9278 13.034 16.5759 14.1574C17.2241 15.2809 17.5481 16.5556 17.5481 17.9815C17.5481 19.4074 17.2133 20.6929 16.5435 21.838C15.8738 22.983 14.9447 23.8797 13.7565 24.5278C12.5898 25.176 11.2719 25.5 9.80277 25.5Z" fill="white"/>
</g>
<defs>
<clipPath id="clip0_306_814">
<rect width="20" height="29" fill="white"/>
</clipPath>
</defs>
</svg>
