<svg width="20" height="29" viewBox="0 0 20 29" fill="none" xmlns="http://www.w3.org/2000/svg">
<g clip-path="url(#clip0_306_816)">
<rect width="20" height="29" fill="black"/>
<path d="M10.0431 25.5C8.53076 25.5 7.18045 25.1543 5.99218 24.463C4.80391 23.75 3.8857 22.8102 3.23755 21.6435C2.5894 20.4769 2.26533 19.2346 2.26533 17.9167C2.26533 16.642 2.51379 15.4429 3.0107 14.3195C3.50761 13.1744 4.24218 11.8889 5.2144 10.463L10.8209 2.23151L13.6403 4.17595L8.58477 11.2084L8.7144 11.338C9.29774 10.9923 10.0323 10.8195 10.9181 10.8195C12.0416 10.8195 13.1218 11.1327 14.1588 11.7593C15.2175 12.3858 16.0709 13.25 16.719 14.3519C17.3888 15.4321 17.7237 16.6528 17.7237 18.0139C17.7237 19.375 17.3672 20.6281 16.6542 21.7732C15.9629 22.9182 15.023 23.8256 13.8348 24.4954C12.6681 25.1651 11.4042 25.5 10.0431 25.5ZM10.0107 22.1621C10.7453 22.1621 11.4366 21.9892 12.0848 21.6435C12.7329 21.2763 13.2406 20.7793 13.6079 20.1528C13.9968 19.5263 14.1913 18.8241 14.1913 18.0463C14.1913 17.2685 13.9968 16.5664 13.6079 15.9398C13.219 15.2917 12.7005 14.7948 12.0524 14.4491C11.4258 14.0818 10.7453 13.8982 10.0107 13.8982C9.27613 13.8982 8.58477 14.0818 7.93663 14.4491C7.28848 14.7948 6.76996 15.2917 6.38107 15.9398C5.99218 16.5664 5.79774 17.2685 5.79774 18.0463C5.79774 18.8241 5.98138 19.5263 6.34866 20.1528C6.73755 20.7793 7.25607 21.2763 7.90422 21.6435C8.55237 21.9892 9.25453 22.1621 10.0107 22.1621Z" fill="white"/>
</g>
<defs>
<clipPath id="clip0_306_816">
<rect width="20" height="29" fill="white"/>
</clipPath>
</defs>
</svg>
