<svg width="73" height="95" viewBox="0 0 73 95" fill="none" xmlns="http://www.w3.org/2000/svg">
<g clip-path="url(#clip0_309_277)">
<rect width="73" height="95" fill="black"/>
<path d="M8.17134 80.939C10.8607 78.2496 16.196 72.8709 24.1773 64.8029C32.1586 56.648 37.7108 50.879 40.8339 47.4956C45.2584 42.7241 48.2513 38.9938 49.8129 36.3044C51.3745 33.6151 52.1552 30.3618 52.1552 26.5447C52.1552 23.9421 51.4612 21.513 50.0732 19.2574C48.7719 16.9151 46.8199 15.0499 44.2173 13.6618C41.7015 12.187 38.6651 11.4496 35.1082 11.4496C30.4235 11.4496 26.6498 12.8377 23.7869 15.6138C21.0108 18.3031 19.189 21.2527 18.3215 24.4626L8.17134 20.4286C9.03887 17.6525 10.6004 14.7896 12.856 11.84C15.1116 8.80362 18.148 6.2444 21.9651 4.16233C25.7822 1.99349 30.2934 0.909076 35.4986 0.909076C40.9641 0.909076 45.7789 2.08025 49.943 4.42258C54.1939 6.76492 57.4906 9.88804 59.8329 13.7919C62.1752 17.6958 63.3464 21.9034 63.3464 26.4145C63.3464 35.5236 58.575 44.9364 49.0321 54.6527L22.3555 81.4595H64.3874V92H8.17134V80.939Z" fill="#FFDDAA"/>
</g>
<defs>
<clipPath id="clip0_309_277">
<rect width="73" height="95" fill="white"/>
</clipPath>
</defs>
</svg>
