<svg width="73" height="95" viewBox="0 0 73 95" fill="none" xmlns="http://www.w3.org/2000/svg">
<g clip-path="url(#clip0_309_283)">
<rect width="73" height="95" fill="black"/>
<path d="M35.493 94.0821C31.3289 94.0821 27.2081 93.2145 23.1307 91.4795C19.0533 89.6577 15.453 86.9683 12.3299 83.4114C9.20678 79.7678 6.99457 75.3 5.69327 70.008L15.453 66.1042C16.7543 71.3961 19.14 75.647 22.6102 78.8569C26.167 81.98 30.3746 83.5416 35.2328 83.5416C41.0452 83.5416 45.7733 81.7631 49.4169 78.2062C53.0606 74.6493 54.8824 70.008 54.8824 64.2823C54.8824 58.6434 53.0606 54.0021 49.4169 50.3584C45.86 46.628 41.2187 44.7629 35.493 44.7629C32.3699 44.7629 29.4203 45.5003 26.6442 46.9751C23.8681 48.3631 21.6125 50.3151 19.8774 52.8309L8.55613 47.886L14.412 2.99116H60.478V13.5317H23.5211L20.0076 40.4686L20.5281 40.5987C25.126 36.6948 30.765 34.7428 37.445 34.7428C42.5634 34.7428 47.2915 36.0008 51.6291 38.5166C56.0535 41.0325 59.567 44.546 62.1696 49.0571C64.7722 53.5683 66.0735 58.6 66.0735 64.1522C66.0735 69.7044 64.7289 74.7795 62.0395 79.3774C59.4369 83.8886 55.7933 87.4888 51.1086 90.1782C46.4239 92.7808 41.2187 94.0821 35.493 94.0821Z" fill="#FFDDAA"/>
</g>
<defs>
<clipPath id="clip0_309_283">
<rect width="73" height="95" fill="white"/>
</clipPath>
</defs>
</svg>
