<svg width="73" height="95" viewBox="0 0 73 95" fill="none" xmlns="http://www.w3.org/2000/svg">
<g clip-path="url(#clip0_309_273)">
<rect width="73" height="95" fill="black"/>
<path d="M36.4654 94.0821C29.4384 94.0821 23.1922 92.0434 17.7267 87.966C12.348 83.8018 8.18388 78.2062 5.23426 71.1792C2.37141 64.0655 0.939978 56.1709 0.939978 47.4956C0.939978 38.8203 2.37141 30.9691 5.23426 23.9421C8.18388 16.8283 12.348 11.2327 17.7267 7.15532C23.1054 2.99116 29.3517 0.909076 36.4654 0.909076C43.5792 0.909076 49.8254 2.99116 55.2041 7.15532C60.5828 11.2327 64.7036 16.8283 67.5665 23.9421C70.5161 30.9691 71.9909 38.8203 71.9909 47.4956C71.9909 56.1709 70.5161 64.0655 67.5665 71.1792C64.7036 78.2062 60.5395 83.8018 55.074 87.966C49.6953 92.0434 43.4925 94.0821 36.4654 94.0821ZM36.4654 83.5416C41.4104 83.5416 45.7047 81.98 49.3483 78.8569C52.9919 75.647 55.8114 71.3093 57.8067 65.8439C59.8021 60.3784 60.7997 54.2623 60.7997 47.4956C60.7997 40.7288 59.8021 34.6127 57.8067 29.1473C55.8114 23.6818 52.9919 19.3875 49.3483 16.2644C45.7047 13.0545 41.4104 11.4496 36.4654 11.4496C31.5205 11.4496 27.2262 13.0545 23.5826 16.2644C19.9389 19.3875 17.1195 23.6818 15.1241 29.1473C13.1288 34.6127 12.1311 40.7288 12.1311 47.4956C12.1311 54.2623 13.1288 60.3784 15.1241 65.8439C17.1195 71.3093 19.9389 75.647 23.5826 78.8569C27.2262 81.98 31.5205 83.5416 36.4654 83.5416Z" fill="#FFDDAA"/>
</g>
<defs>
<clipPath id="clip0_309_273">
<rect width="73" height="95" fill="white"/>
</clipPath>
</defs>
</svg>
